<?xml version="1.0" standalone="no"?>
<!DOCTYPE svg PUBLIC "-//W3C//DTD SVG 20010904//EN"
 "http://www.w3.org/TR/2001/REC-SVG-20010904/DTD/svg10.dtd">
<svg version="1.0" xmlns="http://www.w3.org/2000/svg"
 width="512.000000pt" height="512.000000pt" viewBox="0 0 512.000000 512.000000"
 preserveAspectRatio="xMidYMid meet">

<g transform="translate(0.000000,512.000000) scale(0.100000,-0.100000)"
fill="#000000" stroke="none">
<path d="M295 5105 c-79 -28 -145 -124 -145 -210 0 -116 106 -225 220 -225 23
0 20 -6 -38 -67 -75 -80 -145 -213 -167 -318 -22 -105 -22 -2895 0 -3000 22
-105 92 -238 167 -318 58 -61 61 -67 38 -67 -55 0 -106 -23 -151 -69 -94 -93
-92 -218 3 -314 26 -26 54 -47 63 -47 13 0 15 -27 15 -210 0 -211 0 -211 25
-235 l24 -25 551 0 551 0 24 25 c25 24 25 25 25 225 l0 200 230 0 230 0 0
-200 c0 -200 0 -201 25 -225 l24 -25 551 0 551 0 24 25 c25 24 25 25 25 225
l0 200 230 0 230 0 0 -200 c0 -200 0 -201 25 -225 l24 -25 551 0 551 0 24 25
c25 24 25 24 25 235 0 183 2 210 15 210 9 0 37 21 63 48 95 95 97 216 4 312
-46 47 -95 70 -152 70 -23 0 -20 6 38 67 75 80 145 213 167 318 22 105 22
2895 0 3000 -22 105 -92 238 -167 318 -56 60 -61 67 -39 67 111 0 221 112 221
225 0 86 -77 193 -155 214 -28 8 -682 11 -2260 11 -1888 -1 -2226 -3 -2260
-15z m4500 -160 c32 -31 32 -69 0 -100 l-24 -25 -401 0 -401 0 -24 -25 -25
-24 0 -576 0 -575 -75 0 -75 0 0 575 0 576 -25 24 -24 25 -1161 0 -1161 0 -24
-25 -25 -24 0 -576 0 -575 -75 0 -75 0 0 575 0 576 -25 24 -24 25 -401 0 -401
0 -24 25 c-14 13 -25 36 -25 50 0 14 11 37 25 50 l24 25 2211 0 2211 0 24 -25z
m-3745 -2161 l0 -1886 -167 4 c-195 6 -245 19 -355 94 -98 66 -164 155 -204
274 -18 53 -19 117 -19 1515 0 1398 1 1462 19 1515 21 64 57 129 100 184 63
78 208 161 316 179 14 2 89 5 168 6 l142 1 0 -1886z m2570 1361 l0 -525 -960
0 -961 0 -24 -25 c-32 -31 -32 -69 0 -100 l24 -25 1111 0 1110 0 0 -685 0
-685 -1360 0 -1360 0 0 685 0 685 125 0 c120 0 127 1 150 25 l25 24 0 576 0
575 1060 0 1060 0 0 -525z m842 497 c163 -59 278 -177 334 -342 18 -53 19
-115 19 -1515 0 -1400 -1 -1462 -19 -1515 -56 -165 -171 -283 -334 -342 -46
-17 -89 -22 -224 -26 l-168 -4 0 1887 0 1887 168 -4 c135 -4 178 -9 224 -26z
m-3112 -3267 l0 -576 25 -24 24 -25 1161 0 1161 0 24 25 25 24 0 576 0 575 75
0 75 0 0 -575 0 -576 25 -24 24 -25 401 0 401 0 24 -25 c14 -13 25 -36 25 -50
0 -14 -11 -37 -25 -50 l-24 -25 -2211 0 -2211 0 -24 25 c-32 31 -32 69 0 100
l24 25 401 0 401 0 24 25 25 24 0 576 0 575 75 0 75 0 0 -575z m2270 50 l0
-525 -345 0 -345 0 45 58 c71 92 98 167 103 294 3 88 1 119 -17 176 -79 260
-354 419 -619 357 -178 -42 -329 -182 -382 -353 -27 -87 -27 -227 0 -313 20
-67 65 -145 108 -191 l26 -28 -347 0 -347 0 0 525 0 525 1060 0 1060 0 0 -525z
m-949 205 c160 -50 259 -186 259 -355 0 -169 -99 -305 -259 -355 -80 -25 -142
-25 -222 0 -115 36 -197 114 -240 229 -30 80 -24 214 14 287 50 99 124 162
226 195 74 24 145 23 222 -1z m-1321 -1330 l0 -150 -450 0 -450 0 0 150 0 150
450 0 450 0 0 -150z m1660 0 l0 -150 -450 0 -450 0 0 150 0 150 450 0 450 0 0
-150z m1660 0 l0 -150 -450 0 -450 0 0 150 0 150 450 0 450 0 0 -150z"/>
<path d="M1767 3306 c-10 -8 -22 -29 -27 -47 -13 -44 -13 -754 0 -798 18 -64
-29 -60 820 -60 849 0 802 -4 820 60 13 44 13 754 0 798 -18 64 29 60 -820 60
-637 0 -778 -2 -793 -13z m1463 -211 l0 -75 -670 0 -670 0 0 75 0 75 670 0
670 0 0 -75z m0 -385 l0 -160 -670 0 -670 0 0 160 0 160 670 0 670 0 0 -160z"/>
<path d="M2459 1472 c-34 -17 -65 -44 -84 -71 -28 -39 -30 -50 -30 -126 0 -76
2 -87 30 -126 39 -56 120 -99 184 -99 67 0 147 43 186 98 27 40 30 51 30 127
0 76 -3 87 -30 127 -20 28 -49 52 -84 71 -73 36 -131 36 -202 -1z m149 -142
c47 -44 15 -130 -48 -130 -38 0 -70 34 -70 75 0 41 32 75 70 75 14 0 36 -9 48
-20z"/>
</g>
</svg>
