<?xml version="1.0" standalone="no"?>
<!DOCTYPE svg PUBLIC "-//W3C//DTD SVG 20010904//EN"
 "http://www.w3.org/TR/2001/REC-SVG-20010904/DTD/svg10.dtd">
<svg version="1.0" xmlns="http://www.w3.org/2000/svg"
 width="512.000000pt" height="512.000000pt" viewBox="0 0 512.000000 512.000000"
 preserveAspectRatio="xMidYMid meet">

<g transform="translate(0.000000,512.000000) scale(0.100000,-0.100000)"
fill="#000000" stroke="none">
<path d="M1080 4947 c-69 -36 -80 -68 -80 -224 l0 -133 -206 0 c-226 0 -263
-6 -319 -52 -107 -89 -100 -262 13 -343 34 -23 56 -30 107 -33 l65 -4 0 -658
c0 -585 2 -660 16 -674 8 -9 19 -16 24 -16 5 0 16 7 24 16 14 14 16 88 16 670
l0 654 1820 0 1820 0 0 -1780 0 -1780 -1820 0 -1820 0 0 994 c0 891 -2 996
-16 1010 -19 20 -29 20 -48 0 -14 -14 -16 -119 -16 -1008 l0 -993 -57 -7 c-74
-8 -129 -40 -168 -94 -27 -40 -30 -51 -30 -122 0 -71 3 -82 30 -122 17 -23 51
-54 75 -68 l45 -25 2005 0 2005 0 45 25 c24 14 58 45 75 68 27 40 30 51 30
122 0 71 -3 82 -30 122 -39 54 -94 86 -167 94 l-58 7 0 1782 0 1783 65 4 c118
7 195 90 195 210 0 98 -59 180 -149 207 -28 8 -416 11 -1430 11 l-1391 0 0
133 c0 158 -11 189 -80 225 -42 21 -55 22 -296 22 -242 0 -252 -1 -294 -23z
m575 -82 c24 -23 25 -30 25 -150 l0 -125 -305 0 -305 0 0 125 c0 120 1 127 25
150 l24 25 256 0 256 0 24 -25z m2944 -389 c77 -74 58 -193 -35 -232 -50 -21
-3958 -21 -4008 0 -59 25 -97 99 -82 160 8 31 53 85 80 96 12 5 920 8 2018 7
l1997 -2 30 -29z m-18 -3989 c90 -60 88 -181 -4 -237 -31 -20 -67 -20 -2017
-20 -1950 0 -1986 0 -2017 20 -92 56 -94 177 -4 237 l34 23 1987 0 1987 0 34
-23z"/>
<path d="M2345 3564 c-801 -143 -1234 -1028 -859 -1755 405 -784 1507 -876
2040 -170 276 366 321 849 118 1269 -42 86 -47 93 -72 90 -40 -4 -39 -35 3
-118 80 -158 119 -326 119 -510 0 -134 -15 -231 -55 -352 -56 -173 -135 -303
-267 -440 -216 -224 -495 -341 -812 -341 -309 0 -571 106 -793 322 -227 221
-342 499 -341 821 2 396 204 755 541 961 428 261 976 210 1351 -125 34 -31 67
-56 72 -56 12 0 40 29 40 43 0 17 -90 99 -171 157 -144 101 -320 174 -493 205
-109 19 -312 18 -421 -1z"/>
<path d="M2497 3143 c-128 -200 -149 -253 -104 -261 26 -5 39 9 101 113 32 52
61 95 66 95 14 0 193 -305 285 -485 85 -167 140 -304 156 -392 20 -106 -28
-257 -111 -347 -257 -278 -713 -137 -770 239 -9 61 -8 81 9 148 24 93 84 237
152 365 53 100 57 113 34 132 -25 21 -49 2 -89 -73 -111 -205 -186 -415 -186
-519 0 -238 177 -453 415 -503 88 -18 122 -18 210 0 154 33 289 135 358 273
105 211 70 384 -169 822 -47 85 -126 223 -177 305 -113 183 -117 186 -180 88z"/>
</g>
</svg>
